<svg width="18" height="17" viewBox="0 0 18 17" fill="none" xmlns="http://www.w3.org/2000/svg">
<path d="M16.4111 10.0308L17.8701 3.25996C17.9755 2.77109 17.6232 2.30556 17.1478 2.30556H5.02491L4.74201 0.846904C4.67152 0.483329 4.36818 0.222229 4.0163 0.222229H0.851825C0.44272 0.222229 0.111084 0.572001 0.111084 1.00348V1.52431C0.111084 1.95579 0.44272 2.30556 0.851825 2.30556H3.00871L5.17686 13.4851C4.65815 13.7997 4.30862 14.3896 4.30862 15.066C4.30862 16.0728 5.08244 16.8889 6.03701 16.8889C6.99158 16.8889 7.76541 16.0728 7.76541 15.066C7.76541 14.5558 7.56643 14.0948 7.24615 13.7639H13.7167C13.3965 14.0948 13.1975 14.5558 13.1975 15.066C13.1975 16.0728 13.9713 16.8889 14.9259 16.8889C15.8805 16.8889 16.6543 16.0728 16.6543 15.066C16.6543 14.3442 16.2565 13.7205 15.6796 13.4252L15.8499 12.635C15.9553 12.1461 15.6029 11.6806 15.1276 11.6806H6.84309L6.64109 10.6389H15.6888C16.0346 10.6389 16.3345 10.3865 16.4111 10.0308Z" fill="#D9D9D9"/>
</svg>
